<svg id="svg" version="1.1" xmlns="http://www.w3.org/2000/svg" xmlns:xlink="http://www.w3.org/1999/xlink" width="400" height="400" viewBox="0, 0, 400,400"><g id="svgg"><path id="path0" d="M28.868 93.765 C 28.171 94.736,27.600 95.630,27.600 95.751 C 27.600 95.873,27.066 96.815,26.413 97.845 C 25.759 98.874,25.320 99.871,25.436 100.059 C 25.552 100.246,25.457 100.400,25.224 100.400 C 24.991 100.400,24.800 100.720,24.800 101.112 C 24.800 101.503,24.440 102.083,24.000 102.400 C 23.560 102.717,23.200 103.297,23.200 103.688 C 23.200 104.080,23.020 104.400,22.800 104.400 C 22.580 104.400,22.400 104.760,22.400 105.200 C 22.400 105.640,22.220 106.000,22.000 106.000 C 21.780 106.000,21.600 106.360,21.600 106.800 C 21.600 107.240,21.420 107.600,21.200 107.600 C 20.980 107.600,20.800 107.960,20.800 108.400 C 20.800 108.840,20.654 109.200,20.475 109.200 C 20.296 109.200,19.902 109.830,19.600 110.600 C 19.298 111.370,18.904 112.000,18.725 112.000 C 18.546 112.000,18.400 112.360,18.400 112.800 C 18.400 113.240,18.220 113.600,18.000 113.600 C 17.780 113.600,17.600 113.960,17.600 114.400 C 17.600 114.840,17.420 115.200,17.200 115.200 C 16.980 115.200,16.800 115.639,16.800 116.176 C 16.800 116.713,16.620 117.264,16.400 117.400 C 16.180 117.536,16.000 117.997,16.000 118.424 C 16.000 118.851,15.820 119.200,15.600 119.200 C 15.380 119.200,15.200 119.545,15.200 119.967 C 15.200 120.388,15.022 120.793,14.803 120.867 C 14.585 120.940,14.366 121.495,14.316 122.100 C 14.266 122.705,14.085 123.200,13.913 123.200 C 13.741 123.200,13.600 123.560,13.600 124.000 C 13.600 124.440,13.420 124.800,13.200 124.800 C 12.980 124.800,12.799 125.115,12.798 125.500 C 12.796 126.228,11.108 130.625,10.657 131.076 C 10.516 131.217,10.400 131.717,10.400 132.187 C 10.400 132.656,10.247 133.211,10.059 133.420 C 9.618 133.913,8.400 138.394,8.400 139.526 C 8.400 140.007,8.220 140.400,8.000 140.400 C 7.780 140.400,7.600 140.940,7.600 141.600 C 7.600 142.260,7.420 142.800,7.200 142.800 C 6.980 142.800,6.800 143.441,6.800 144.224 C 6.800 145.071,6.638 145.547,6.400 145.400 C 6.171 145.258,6.000 145.620,6.000 146.248 C 6.000 147.360,5.390 149.630,4.751 150.895 C 4.558 151.277,4.400 152.211,4.400 152.971 C 4.400 153.731,4.220 154.464,4.000 154.600 C 3.780 154.736,3.600 155.456,3.600 156.200 C 3.600 156.944,3.420 157.664,3.200 157.800 C 2.980 157.936,2.800 158.721,2.800 159.544 C 2.800 160.367,2.638 161.211,2.441 161.420 C 2.244 161.629,1.987 162.520,1.870 163.400 C 1.361 167.244,1.092 168.627,0.775 169.018 C 0.326 169.574,0.370 167.651,0.153 196.600 C -0.056 224.498,0.162 229.350,1.920 236.080 C 2.133 236.894,2.208 237.659,2.087 237.780 C 1.966 237.901,2.077 238.000,2.333 238.000 C 2.610 238.000,2.800 238.642,2.800 239.576 C 2.800 240.443,2.980 241.264,3.200 241.400 C 3.420 241.536,3.600 242.256,3.600 243.000 C 3.600 243.744,3.780 244.464,4.000 244.600 C 4.220 244.736,4.400 245.431,4.400 246.144 C 4.400 246.857,4.625 247.682,4.900 247.979 C 5.306 248.416,5.288 248.458,4.800 248.200 C 4.312 247.942,4.294 247.984,4.700 248.421 C 4.975 248.718,5.200 249.565,5.200 250.304 C 5.200 251.097,5.364 251.546,5.600 251.400 C 5.838 251.253,6.000 251.731,6.000 252.582 C 6.000 253.368,6.180 254.368,6.400 254.805 C 6.620 255.242,6.980 255.958,7.200 256.395 C 7.420 256.832,7.600 257.732,7.600 258.395 C 7.600 259.058,7.760 259.600,7.956 259.600 C 8.152 259.600,8.406 260.185,8.520 260.900 C 8.725 262.182,8.883 262.823,9.283 264.000 C 9.395 264.330,9.704 265.320,9.970 266.200 C 10.465 267.840,11.022 269.266,11.647 270.495 C 11.841 270.877,12.000 271.552,12.000 271.995 C 12.000 272.438,12.180 272.800,12.400 272.800 C 12.620 272.800,12.800 273.239,12.800 273.776 C 12.800 274.313,12.980 274.864,13.200 275.000 C 13.420 275.136,13.600 275.597,13.600 276.024 C 13.600 276.451,13.780 276.800,14.000 276.800 C 14.220 276.800,14.400 277.155,14.400 277.588 C 14.400 278.345,15.687 280.992,16.438 281.780 C 16.637 281.989,16.800 282.574,16.800 283.080 C 16.800 283.586,16.980 284.000,17.200 284.000 C 17.420 284.000,17.600 284.450,17.600 285.000 C 17.600 285.550,17.780 286.000,18.000 286.000 C 18.220 286.000,18.400 286.360,18.400 286.800 C 18.400 287.240,18.580 287.600,18.800 287.600 C 19.020 287.600,19.200 287.960,19.200 288.400 C 19.200 288.840,19.380 289.200,19.600 289.200 C 19.820 289.200,20.000 289.560,20.000 290.000 C 20.000 290.440,20.180 290.800,20.400 290.800 C 20.620 290.800,20.800 291.160,20.800 291.600 C 20.800 292.040,20.980 292.400,21.200 292.400 C 21.420 292.400,21.600 292.678,21.600 293.017 C 21.600 293.356,21.960 294.020,22.400 294.492 C 22.840 294.964,23.200 295.587,23.200 295.875 C 23.200 296.164,23.380 296.400,23.600 296.400 C 23.820 296.400,24.000 296.760,24.000 297.200 C 24.000 297.640,24.180 298.000,24.400 298.000 C 24.620 298.000,24.800 298.258,24.800 298.573 C 24.800 299.427,29.980 307.990,30.500 307.997 C 30.665 307.998,30.800 308.320,30.800 308.712 C 30.800 309.103,31.160 309.683,31.600 310.000 C 32.040 310.317,32.400 310.897,32.400 311.288 C 32.400 311.680,32.550 312.000,32.732 312.000 C 32.915 312.000,33.319 312.495,33.630 313.100 C 33.940 313.705,34.467 314.470,34.800 314.800 C 35.133 315.130,35.660 315.895,35.970 316.500 C 36.281 317.105,36.685 317.600,36.868 317.600 C 37.050 317.600,37.200 317.881,37.200 318.224 C 37.200 318.567,37.380 318.736,37.600 318.600 C 37.820 318.464,38.000 318.734,38.000 319.200 C 38.000 319.666,38.180 319.936,38.400 319.800 C 38.620 319.664,38.800 319.833,38.800 320.176 C 38.800 320.519,38.980 320.800,39.200 320.800 C 39.420 320.800,39.600 320.978,39.600 321.195 C 39.600 321.626,40.397 322.670,42.087 324.453 C 42.684 325.084,43.082 325.600,42.971 325.600 C 42.859 325.600,42.957 325.825,43.188 326.100 C 45.830 329.253,46.705 330.270,47.300 330.881 C 47.685 331.276,48.000 331.714,48.000 331.852 C 48.000 331.991,49.260 333.355,50.800 334.882 C 52.340 336.410,53.600 337.815,53.600 338.003 C 53.600 338.192,53.960 338.460,54.400 338.600 C 54.840 338.740,55.200 339.027,55.200 339.237 C 55.200 339.624,58.609 343.200,58.977 343.200 C 59.086 343.200,61.332 345.360,63.967 348.000 C 66.603 350.640,68.932 352.800,69.143 352.800 C 69.354 352.800,70.344 353.565,71.342 354.500 C 73.723 356.730,74.400 357.282,74.400 356.995 C 74.400 356.865,74.826 357.218,75.346 357.779 C 75.866 358.341,76.496 358.800,76.746 358.800 C 76.996 358.800,77.200 358.980,77.200 359.200 C 77.200 359.420,77.481 359.600,77.824 359.600 C 78.167 359.600,78.336 359.780,78.200 360.000 C 78.064 360.220,78.151 360.400,78.393 360.400 C 78.635 360.400,79.220 360.760,79.692 361.200 C 80.164 361.640,80.798 362.000,81.099 362.000 C 81.401 362.000,81.536 362.180,81.400 362.400 C 81.264 362.620,81.433 362.800,81.776 362.800 C 82.119 362.800,82.400 362.950,82.400 363.132 C 82.400 363.315,82.895 363.719,83.500 364.030 C 84.105 364.340,84.870 364.867,85.200 365.200 C 85.530 365.533,86.295 366.060,86.900 366.370 C 87.505 366.681,88.000 367.085,88.000 367.268 C 88.000 367.450,88.236 367.600,88.525 367.600 C 88.813 367.600,89.405 367.915,89.840 368.300 C 90.275 368.685,90.894 369.059,91.216 369.130 C 91.537 369.202,91.860 369.427,91.933 369.630 C 92.007 369.834,92.320 370.000,92.630 370.000 C 92.940 370.000,93.418 370.360,93.693 370.800 C 93.968 371.240,94.354 371.600,94.552 371.600 C 94.750 371.600,96.259 372.410,97.907 373.400 C 99.554 374.390,101.149 375.200,101.451 375.200 C 101.753 375.200,102.000 375.380,102.000 375.600 C 102.000 375.820,102.360 376.000,102.800 376.000 C 103.240 376.000,103.600 376.180,103.600 376.400 C 103.600 376.620,103.945 376.800,104.367 376.800 C 104.788 376.800,105.193 376.935,105.267 377.100 C 105.434 377.476,107.564 378.775,108.500 379.071 C 108.885 379.193,109.200 379.452,109.200 379.647 C 109.200 379.841,109.560 380.000,110.000 380.000 C 110.440 380.000,110.800 380.180,110.800 380.400 C 110.800 380.620,111.160 380.800,111.600 380.800 C 112.040 380.800,112.400 380.980,112.400 381.200 C 112.400 381.420,112.850 381.600,113.400 381.600 C 113.950 381.600,114.400 381.780,114.400 382.000 C 114.400 382.220,114.835 382.400,115.367 382.400 C 115.898 382.400,116.393 382.535,116.467 382.700 C 116.540 382.865,117.500 383.425,118.600 383.944 C 119.700 384.463,120.913 385.048,121.295 385.244 C 121.677 385.440,122.262 385.600,122.595 385.600 C 122.928 385.600,123.200 385.780,123.200 386.000 C 123.200 386.220,123.549 386.400,123.976 386.400 C 124.403 386.400,124.864 386.580,125.000 386.800 C 125.136 387.020,125.777 387.200,126.424 387.200 C 127.071 387.200,127.600 387.380,127.600 387.600 C 127.600 387.820,127.872 388.000,128.204 388.000 C 128.537 388.000,129.572 388.350,130.504 388.777 C 132.884 389.867,138.399 391.600,139.489 391.600 C 139.990 391.600,140.400 391.780,140.400 392.000 C 140.400 392.220,141.120 392.400,142.000 392.400 C 142.880 392.400,143.600 392.580,143.600 392.800 C 143.600 393.020,144.129 393.200,144.776 393.200 C 145.423 393.200,146.064 393.380,146.200 393.600 C 146.336 393.820,146.977 394.000,147.624 394.000 C 148.271 394.000,148.800 394.180,148.800 394.400 C 148.800 394.620,149.621 394.800,150.624 394.800 C 151.737 394.800,152.351 394.956,152.200 395.200 C 152.048 395.447,152.729 395.600,153.976 395.600 C 155.089 395.600,156.000 395.780,156.000 396.000 C 156.000 396.220,156.720 396.400,157.600 396.400 C 158.480 396.400,159.200 396.580,159.200 396.800 C 159.200 397.020,160.089 397.200,161.176 397.200 C 162.263 397.200,163.264 397.380,163.400 397.600 C 163.536 397.820,164.616 398.000,165.800 398.000 C 166.984 398.000,168.064 398.180,168.200 398.400 C 168.336 398.620,169.577 398.800,170.957 398.800 C 172.337 398.800,173.592 398.925,173.745 399.078 C 174.405 399.739,190.800 400.320,190.800 399.683 C 190.800 399.443,192.531 396.221,194.647 392.523 C 196.763 388.826,199.039 384.810,199.705 383.600 C 200.371 382.390,201.050 381.220,201.215 381.000 C 201.380 380.780,201.916 379.880,202.406 379.000 C 202.896 378.120,209.061 367.320,216.106 355.000 C 223.151 342.680,229.249 332.015,229.658 331.300 C 230.066 330.585,230.760 329.370,231.200 328.600 C 231.640 327.830,232.360 326.570,232.800 325.800 C 233.240 325.030,233.960 323.770,234.400 323.000 C 234.840 322.230,235.560 320.970,236.000 320.200 C 236.440 319.430,237.151 318.181,237.579 317.424 C 238.008 316.668,243.435 307.173,249.639 296.324 C 255.843 285.476,261.252 276.015,261.659 275.300 C 262.067 274.585,262.760 273.370,263.200 272.600 C 250.770 294.353,278.830 245.247,266.400 267.000 C 266.840 266.230,267.560 264.970,268.000 264.200 C 268.440 263.430,269.185 262.125,269.657 261.300 C 270.128 260.475,270.960 258.990,271.506 258.000 C 272.052 257.010,272.657 256.029,272.849 255.820 C 273.042 255.611,273.200 255.192,273.200 254.889 C 273.200 254.586,272.705 254.936,272.100 255.666 C 271.495 256.396,270.554 257.535,270.010 258.197 C 262.916 266.816,251.452 275.950,241.242 281.115 C 231.281 286.154,223.808 288.458,211.091 290.411 C 207.552 290.954,192.384 290.947,188.909 290.400 C 184.262 289.669,181.453 289.165,180.000 288.801 C 179.230 288.608,177.700 288.237,176.600 287.977 C 165.443 285.332,152.377 278.583,141.819 270.010 C 133.654 263.379,124.421 251.925,118.919 241.600 C 118.040 239.950,116.728 237.610,116.004 236.400 C 115.280 235.190,114.377 233.660,113.996 233.000 C 112.848 231.009,104.823 217.240,102.690 213.600 C 101.594 211.730,100.360 209.615,99.949 208.900 C 99.537 208.185,98.863 207.015,98.451 206.300 C 98.039 205.585,94.860 200.140,91.387 194.200 C 87.913 188.260,83.867 181.330,82.396 178.800 C 80.924 176.270,77.779 170.870,75.408 166.800 C 73.036 162.730,70.782 158.860,70.399 158.200 C 70.016 157.540,68.807 155.470,67.711 153.600 C 65.464 149.764,58.924 138.537,56.992 135.200 C 56.291 133.990,54.768 131.380,53.608 129.400 C 52.447 127.420,51.184 125.260,50.800 124.600 C 50.416 123.940,49.154 121.780,47.995 119.800 C 44.873 114.469,36.125 99.418,34.277 96.200 C 31.455 91.285,30.846 91.011,28.868 93.765 " stroke="none" fill="#0c9c5c" fill-rule="evenodd"></path><path id="path1" d="M377.754 108.806 C 377.451 109.109,351.239 109.200,288.163 109.117 C 239.123 109.053,199.990 109.042,201.200 109.094 C 261.658 111.685,302.290 164.796,288.035 222.600 C 285.708 232.035,276.856 251.197,274.300 252.333 C 274.135 252.407,274.000 252.822,274.000 253.257 C 274.000 253.692,273.820 253.936,273.600 253.800 C 273.377 253.662,273.200 253.969,273.200 254.496 C 273.200 255.015,273.042 255.611,272.849 255.820 C 272.657 256.029,272.052 257.010,271.506 258.000 C 270.960 258.990,270.128 260.475,269.657 261.300 C 269.185 262.125,268.440 263.430,268.000 264.200 C 267.560 264.970,266.840 266.230,266.400 267.000 C 265.960 267.770,265.240 269.030,264.800 269.800 C 264.360 270.570,263.640 271.830,263.200 272.600 C 262.760 273.370,262.067 274.585,261.659 275.300 C 261.252 276.015,255.843 285.476,249.639 296.324 C 243.435 307.173,238.008 316.668,237.579 317.424 C 237.151 318.181,236.440 319.430,236.000 320.200 C 235.560 320.970,234.840 322.230,234.400 323.000 C 242.474 308.871,206.979 370.987,231.200 328.600 C 230.760 329.370,230.066 330.585,229.658 331.300 C 229.249 332.015,223.151 342.680,216.106 355.000 C 209.061 367.320,202.896 378.120,202.406 379.000 C 201.916 379.880,201.380 380.780,201.215 381.000 C 201.050 381.220,200.371 382.390,199.705 383.600 C 199.039 384.810,196.763 388.826,194.647 392.523 C 192.531 396.221,190.800 399.432,190.800 399.659 C 190.800 400.305,226.208 399.952,226.860 399.300 C 227.154 399.006,228.397 398.800,229.880 398.800 C 231.293 398.800,232.400 398.624,232.400 398.400 C 232.400 398.178,233.467 398.000,234.800 398.000 C 236.133 398.000,237.200 397.822,237.200 397.600 C 237.200 397.380,238.089 397.200,239.176 397.200 C 240.263 397.200,241.264 397.020,241.400 396.800 C 241.536 396.580,242.346 396.400,243.200 396.400 C 244.054 396.400,244.864 396.220,245.000 396.000 C 245.136 395.780,245.856 395.600,246.600 395.600 C 247.344 395.600,248.064 395.420,248.200 395.200 C 248.336 394.980,249.056 394.800,249.800 394.800 C 250.544 394.800,251.264 394.620,251.400 394.400 C 251.536 394.180,252.166 394.000,252.800 394.000 C 253.434 394.000,254.064 393.820,254.200 393.600 C 254.336 393.380,254.876 393.200,255.400 393.200 C 255.924 393.200,256.464 393.020,256.600 392.800 C 256.736 392.580,257.467 392.400,258.224 392.400 C 258.981 392.400,259.600 392.220,259.600 392.000 C 259.600 391.780,260.046 391.600,260.592 391.600 C 261.621 391.600,267.278 389.876,268.495 389.191 C 268.877 388.976,269.456 388.800,269.782 388.800 C 270.109 388.800,271.017 388.440,271.800 388.000 C 272.583 387.560,273.483 387.200,273.800 387.200 C 274.117 387.200,275.017 386.840,275.800 386.400 C 276.583 385.960,277.489 385.600,277.812 385.600 C 278.135 385.600,278.400 385.409,278.400 385.176 C 278.400 384.943,278.551 384.846,278.736 384.960 C 278.921 385.075,279.711 384.825,280.492 384.407 C 281.273 383.988,282.022 383.755,282.156 383.889 C 282.290 384.024,282.400 383.923,282.400 383.667 C 282.400 383.410,282.760 383.200,283.200 383.200 C 283.640 383.200,284.000 383.020,284.000 382.800 C 284.000 382.580,284.450 382.400,285.000 382.400 C 285.550 382.400,286.000 382.220,286.000 382.000 C 286.000 381.780,286.360 381.600,286.800 381.600 C 287.240 381.600,287.600 381.420,287.600 381.200 C 287.600 380.980,287.960 380.800,288.400 380.800 C 288.840 380.800,289.200 380.620,289.200 380.400 C 289.200 380.180,289.560 380.000,290.000 380.000 C 290.440 380.000,290.800 379.820,290.800 379.600 C 290.800 379.380,291.160 379.200,291.600 379.200 C 292.040 379.200,292.400 379.020,292.400 378.800 C 292.400 378.580,292.745 378.400,293.167 378.400 C 293.588 378.400,293.993 378.265,294.067 378.100 C 294.234 377.724,296.364 376.425,297.300 376.129 C 297.685 376.007,298.000 375.748,298.000 375.553 C 298.000 375.359,298.255 375.200,298.568 375.200 C 299.125 375.200,301.606 374.022,302.000 373.570 C 302.110 373.444,303.010 372.904,304.000 372.370 C 304.990 371.837,306.091 371.085,306.447 370.700 C 306.803 370.315,307.213 370.000,307.359 370.000 C 307.768 370.000,317.383 363.513,317.533 363.135 C 317.607 362.951,317.932 362.800,318.257 362.800 C 318.582 362.800,318.736 362.620,318.600 362.400 C 318.464 362.180,318.553 362.000,318.798 362.000 C 319.497 362.000,322.026 360.159,321.731 359.865 C 321.586 359.719,321.767 359.600,322.133 359.600 C 322.500 359.600,322.800 359.420,322.800 359.200 C 322.800 358.980,323.057 358.800,323.371 358.800 C 323.685 358.800,324.315 358.326,324.771 357.746 C 325.227 357.166,325.600 356.813,325.600 356.962 C 325.600 357.266,326.122 356.857,328.486 354.700 C 329.390 353.875,330.286 353.200,330.477 353.200 C 330.985 353.200,352.800 331.361,352.800 330.853 C 352.800 330.615,353.565 329.622,354.500 328.645 C 356.616 326.433,357.299 325.600,356.995 325.600 C 356.865 325.600,357.218 325.174,357.779 324.654 C 358.341 324.134,358.800 323.504,358.800 323.254 C 358.800 323.004,358.980 322.800,359.200 322.800 C 359.420 322.800,359.600 322.519,359.600 322.176 C 359.600 321.833,359.780 321.664,360.000 321.800 C 360.220 321.936,360.400 321.849,360.400 321.607 C 360.400 321.365,360.760 320.780,361.200 320.308 C 361.640 319.836,362.000 319.202,362.000 318.901 C 362.000 318.599,362.180 318.464,362.400 318.600 C 362.620 318.736,362.800 318.567,362.800 318.224 C 362.800 317.881,362.938 317.600,363.106 317.600 C 363.274 317.600,363.856 316.880,364.400 316.000 C 364.944 315.120,365.526 314.400,365.694 314.400 C 365.862 314.400,366.000 314.207,366.000 313.972 C 366.000 313.465,368.409 309.859,368.877 309.667 C 369.055 309.593,369.200 309.280,369.200 308.971 C 369.200 308.453,369.847 307.504,371.100 306.184 C 371.375 305.894,371.600 305.559,371.600 305.440 C 371.600 305.321,372.410 303.853,373.400 302.178 C 374.390 300.504,375.200 298.879,375.200 298.567 C 375.200 298.255,375.380 298.000,375.600 298.000 C 375.820 298.000,376.000 297.722,376.000 297.383 C 376.000 297.044,376.360 296.380,376.800 295.908 C 377.240 295.436,377.600 294.813,377.600 294.525 C 377.600 294.236,377.780 294.000,378.000 294.000 C 378.220 294.000,378.400 293.640,378.400 293.200 C 378.400 292.760,378.580 292.400,378.800 292.400 C 379.020 292.400,379.200 292.040,379.200 291.600 C 379.200 291.160,379.380 290.800,379.600 290.800 C 379.820 290.800,380.000 290.440,380.000 290.000 C 380.000 289.560,380.180 289.200,380.400 289.200 C 380.620 289.200,380.800 288.840,380.800 288.400 C 380.800 287.960,380.980 287.600,381.200 287.600 C 381.420 287.600,381.600 287.150,381.600 286.600 C 381.600 286.050,381.780 285.600,382.000 285.600 C 382.220 285.600,382.400 285.240,382.400 284.800 C 382.400 284.360,382.580 284.000,382.800 284.000 C 383.020 284.000,383.200 283.748,383.200 283.441 C 383.200 283.133,383.740 281.855,384.400 280.600 C 385.060 279.345,385.600 278.073,385.600 277.772 C 385.600 277.471,385.960 276.583,386.400 275.800 C 386.840 275.017,387.200 274.117,387.200 273.800 C 387.200 273.483,387.560 272.583,388.000 271.800 C 388.440 271.017,388.800 270.057,388.800 269.668 C 388.800 269.279,388.951 268.789,389.137 268.580 C 389.551 268.112,391.212 262.774,391.478 261.056 C 391.585 260.365,391.836 259.740,392.036 259.667 C 392.236 259.593,392.400 259.019,392.400 258.390 C 392.400 257.762,392.580 257.136,392.800 257.000 C 393.020 256.864,393.200 256.324,393.200 255.800 C 393.200 255.276,393.380 254.736,393.600 254.600 C 393.820 254.464,394.000 253.744,394.000 253.000 C 394.000 252.256,394.180 251.536,394.400 251.400 C 394.620 251.264,394.800 250.544,394.800 249.800 C 394.800 249.056,394.980 248.336,395.200 248.200 C 395.420 248.064,395.600 247.243,395.600 246.376 C 395.600 245.509,395.780 244.800,396.000 244.800 C 396.220 244.800,396.400 244.116,396.400 243.280 C 396.400 242.444,396.563 241.589,396.761 241.380 C 396.960 241.171,397.219 240.190,397.338 239.200 C 397.562 237.328,398.117 234.266,398.608 232.200 C 398.765 231.540,398.902 230.775,398.913 230.500 C 398.924 230.225,399.092 230.000,399.286 230.000 C 399.481 230.000,399.650 229.145,399.664 228.100 C 400.125 192.074,399.974 170.921,399.261 171.363 C 399.117 171.451,398.983 171.046,398.963 170.462 C 398.887 168.302,398.621 166.800,398.315 166.800 C 398.142 166.800,398.000 165.900,398.000 164.800 C 398.000 163.700,397.820 162.800,397.600 162.800 C 397.380 162.800,397.200 161.810,397.200 160.600 C 397.200 159.390,397.020 158.400,396.800 158.400 C 396.580 158.400,396.400 157.781,396.400 157.024 C 396.400 156.267,396.220 155.536,396.000 155.400 C 395.780 155.264,395.600 154.569,395.600 153.856 C 395.600 153.143,395.375 152.318,395.100 152.021 C 394.694 151.584,394.712 151.542,395.200 151.800 C 395.688 152.058,395.706 152.016,395.300 151.579 C 395.025 151.282,394.800 150.435,394.800 149.696 C 394.800 148.903,394.636 148.454,394.400 148.600 C 394.156 148.751,394.000 148.137,394.000 147.024 C 394.000 146.021,393.820 145.200,393.600 145.200 C 393.380 145.200,393.200 144.851,393.200 144.424 C 393.200 143.997,393.020 143.536,392.800 143.400 C 392.580 143.264,392.400 142.544,392.400 141.800 C 392.400 141.056,392.220 140.336,392.000 140.200 C 391.780 140.064,391.600 139.606,391.600 139.182 C 391.600 137.986,388.728 129.414,387.553 127.105 C 387.359 126.723,387.200 126.138,387.200 125.805 C 387.200 125.472,387.020 125.200,386.800 125.200 C 386.580 125.200,386.400 124.838,386.400 124.395 C 386.400 123.617,386.258 123.231,385.262 121.305 C 385.008 120.813,384.800 120.138,384.800 119.805 C 384.800 119.472,384.620 119.200,384.400 119.200 C 384.180 119.200,384.000 118.928,384.000 118.595 C 384.000 118.262,383.833 117.677,383.629 117.295 C 383.425 116.913,382.388 114.802,381.326 112.605 C 379.461 108.748,378.662 107.898,377.754 108.806 M191.507 109.490 C 192.226 109.579,193.306 109.577,193.907 109.486 C 194.508 109.395,193.920 109.322,192.600 109.324 C 191.280 109.326,190.788 109.401,191.507 109.490 M179.800 111.200 C 178.781 111.638,179.832 111.638,181.200 111.200 C 182.004 110.943,182.043 110.877,181.400 110.868 C 180.960 110.862,180.240 111.011,179.800 111.200 M176.400 112.018 C 175.962 112.315,176.124 112.352,177.000 112.156 C 178.471 111.827,178.790 111.598,177.767 111.606 C 177.345 111.609,176.730 111.795,176.400 112.018 M138.581 132.900 L 137.000 134.600 138.700 133.019 C 140.281 131.548,140.584 131.200,140.281 131.200 C 140.216 131.200,139.451 131.965,138.581 132.900 M132.581 138.900 L 131.000 140.600 132.700 139.019 C 134.281 137.548,134.584 137.200,134.281 137.200 C 134.216 137.200,133.451 137.965,132.581 138.900 M128.586 143.378 C 128.374 143.675,127.783 144.476,127.273 145.159 C 126.763 145.841,126.418 146.400,126.506 146.400 C 126.789 146.400,129.286 143.153,129.126 142.993 C 129.041 142.908,128.798 143.081,128.586 143.378 M111.849 176.615 C 111.712 176.973,111.615 177.566,111.634 177.933 C 111.653 178.300,111.827 178.069,112.021 177.420 C 112.398 176.158,112.265 175.533,111.849 176.615 M110.093 185.600 C 110.093 186.370,110.175 186.685,110.276 186.300 C 110.376 185.915,110.376 185.285,110.276 184.900 C 110.175 184.515,110.093 184.830,110.093 185.600 M109.324 192.600 C 109.326 193.920,109.401 194.412,109.490 193.693 C 109.579 192.974,109.577 191.894,109.486 191.293 C 109.395 190.692,109.322 191.280,109.324 192.600 M109.324 207.400 C 109.326 208.720,109.401 209.212,109.490 208.493 C 109.579 207.774,109.577 206.694,109.486 206.093 C 109.395 205.492,109.322 206.080,109.324 207.400 M110.093 214.400 C 110.093 215.170,110.175 215.485,110.276 215.100 C 110.376 214.715,110.376 214.085,110.276 213.700 C 110.175 213.315,110.093 213.630,110.093 214.400 M111.606 222.233 C 111.609 222.655,111.795 223.270,112.018 223.600 C 112.315 224.038,112.352 223.876,112.156 223.000 C 111.827 221.529,111.598 221.210,111.606 222.233 " stroke="none" fill="#fbcc44" fill-rule="evenodd"></path><path id="path2" d="M192.600 127.629 C 161.499 131.268,136.387 153.141,129.407 182.671 C 129.052 184.172,128.676 185.760,128.571 186.200 C 126.969 192.908,126.969 207.092,128.571 213.800 C 128.676 214.240,129.052 215.828,129.407 217.329 C 134.709 239.762,151.408 258.896,173.340 267.667 C 181.166 270.797,191.585 272.801,200.000 272.795 C 203.374 272.793,211.529 271.924,214.600 271.239 C 215.480 271.043,216.830 270.752,217.600 270.593 C 241.914 265.579,264.571 242.807,270.593 217.329 C 270.948 215.828,271.324 214.240,271.429 213.800 C 273.031 207.092,273.031 192.908,271.429 186.200 C 271.324 185.760,270.948 184.172,270.593 182.671 C 264.567 157.175,241.854 134.344,217.600 129.403 C 216.830 129.246,215.480 128.957,214.600 128.761 C 208.604 127.424,198.703 126.915,192.600 127.629 M254.800 272.449 C 253.406 273.671,253.405 273.672,254.688 272.819 C 255.396 272.348,256.082 271.791,256.212 271.581 C 256.597 270.957,256.277 271.154,254.800 272.449 M191.305 290.687 C 191.914 290.779,192.814 290.777,193.305 290.682 C 193.797 290.587,193.300 290.511,192.200 290.514 C 191.100 290.517,190.697 290.595,191.305 290.687 M206.905 290.687 C 207.514 290.779,208.414 290.777,208.905 290.682 C 209.397 290.587,208.900 290.511,207.800 290.514 C 206.700 290.517,206.297 290.595,206.905 290.687 " stroke="none" fill="#4484f4" fill-rule="evenodd"></path><path id="path3" d="M193.000 109.476 C 180.584 110.296,164.145 115.411,154.200 121.548 C 138.026 131.530,126.338 144.062,118.713 159.600 C 95.448 207.006,116.847 264.023,165.400 283.996 C 186.831 292.813,214.724 292.881,234.309 284.165 C 262.220 271.745,281.310 249.869,288.035 222.600 C 303.079 161.600,255.807 105.330,193.000 109.476 M208.200 127.806 C 210.840 128.135,213.720 128.565,214.600 128.761 C 215.480 128.957,216.830 129.246,217.600 129.403 C 241.854 134.344,264.567 157.175,270.593 182.671 C 270.948 184.172,271.324 185.760,271.429 186.200 C 273.031 192.908,273.031 207.092,271.429 213.800 C 271.324 214.240,270.948 215.828,270.593 217.329 C 264.571 242.807,241.914 265.579,217.600 270.593 C 216.830 270.752,215.480 271.043,214.600 271.239 C 204.777 273.429,192.389 273.149,182.400 270.512 C 177.388 269.188,176.250 268.831,173.340 267.667 C 151.408 258.896,134.709 239.762,129.407 217.329 C 129.052 215.828,128.676 214.240,128.571 213.800 C 126.969 207.092,126.969 192.908,128.571 186.200 C 128.676 185.760,129.052 184.172,129.407 182.671 C 137.720 147.500,172.414 123.342,208.200 127.806 " stroke="none" fill="#f1f2f3" fill-rule="evenodd"></path><path id="path4" d="M180.775 0.155 C 180.652 0.280,178.357 0.415,175.675 0.456 C 172.994 0.496,170.800 0.642,170.800 0.779 C 170.800 1.038,168.881 1.323,167.303 1.299 C 166.809 1.291,166.492 1.426,166.598 1.597 C 166.705 1.769,166.568 1.902,166.296 1.892 C 164.439 1.825,162.383 2.049,162.539 2.301 C 162.641 2.467,161.797 2.657,160.662 2.725 C 159.528 2.793,158.429 3.017,158.220 3.224 C 158.011 3.431,157.257 3.600,156.544 3.600 C 155.831 3.600,155.136 3.780,155.000 4.000 C 154.864 4.220,153.964 4.400,153.000 4.400 C 152.036 4.400,151.136 4.580,151.000 4.800 C 150.864 5.020,150.144 5.200,149.400 5.200 C 148.656 5.200,147.936 5.380,147.800 5.600 C 147.664 5.820,147.201 6.000,146.771 6.000 C 146.341 6.000,145.632 6.180,145.195 6.400 C 144.758 6.620,144.042 6.980,143.605 7.200 C 143.168 7.420,142.279 7.600,141.629 7.600 C 140.979 7.600,140.351 7.756,140.232 7.947 C 140.114 8.139,139.286 8.412,138.391 8.555 C 137.497 8.698,136.458 8.971,136.083 9.162 C 135.707 9.353,134.140 9.904,132.600 10.386 C 131.060 10.867,129.330 11.513,128.756 11.820 C 128.182 12.128,127.597 12.264,127.456 12.123 C 127.315 11.982,127.200 12.077,127.200 12.333 C 127.200 12.590,126.838 12.800,126.395 12.800 C 125.952 12.800,125.232 12.980,124.795 13.200 C 124.358 13.420,123.642 13.780,123.205 14.000 C 122.768 14.220,122.138 14.400,121.805 14.400 C 121.472 14.400,121.200 14.580,121.200 14.800 C 121.200 15.020,120.765 15.200,120.233 15.200 C 119.702 15.200,119.203 15.390,119.126 15.622 C 119.049 15.854,118.679 16.089,118.304 16.144 C 117.930 16.199,117.498 16.369,117.345 16.522 C 117.192 16.675,116.726 16.800,116.310 16.800 C 115.893 16.800,115.664 16.980,115.800 17.200 C 115.936 17.420,115.694 17.600,115.261 17.600 C 114.427 17.600,111.092 19.194,110.867 19.700 C 110.793 19.865,110.388 20.000,109.967 20.000 C 109.545 20.000,109.200 20.180,109.200 20.400 C 109.200 20.620,108.840 20.800,108.400 20.800 C 107.960 20.800,107.600 20.980,107.600 21.200 C 107.600 21.420,107.240 21.600,106.800 21.600 C 106.360 21.600,106.000 21.780,106.000 22.000 C 106.000 22.220,105.722 22.400,105.383 22.400 C 105.044 22.400,104.380 22.760,103.908 23.200 C 103.436 23.640,102.813 24.000,102.525 24.000 C 102.236 24.000,102.000 24.180,102.000 24.400 C 102.000 24.620,101.766 24.800,101.480 24.800 C 100.720 24.800,98.807 25.746,98.803 26.124 C 98.801 26.302,98.620 26.336,98.400 26.200 C 98.180 26.064,98.000 26.108,98.000 26.298 C 98.000 26.487,97.103 27.083,96.006 27.621 C 94.910 28.160,94.010 28.735,94.006 28.900 C 94.003 29.065,93.730 29.200,93.400 29.200 C 93.070 29.200,92.800 29.350,92.800 29.532 C 92.800 29.715,92.305 30.119,91.700 30.430 C 91.095 30.740,90.312 31.307,89.959 31.690 C 89.607 32.072,89.202 32.269,89.059 32.126 C 88.917 31.983,88.800 32.107,88.800 32.400 C 88.800 32.693,88.691 32.824,88.557 32.691 C 88.424 32.557,87.940 32.797,87.482 33.224 C 87.024 33.651,86.402 34.000,86.101 34.000 C 85.799 34.000,85.664 34.180,85.800 34.400 C 85.936 34.620,85.767 34.800,85.424 34.800 C 85.081 34.800,84.800 34.980,84.800 35.200 C 84.800 35.420,84.429 35.600,83.976 35.600 C 83.523 35.600,83.240 35.742,83.348 35.915 C 83.455 36.088,83.014 36.464,82.369 36.750 C 81.714 37.040,81.312 37.458,81.460 37.696 C 81.605 37.931,81.539 38.010,81.314 37.870 C 81.089 37.731,80.386 38.063,79.752 38.608 C 79.118 39.153,78.454 39.599,78.276 39.600 C 78.098 39.600,78.064 39.780,78.200 40.000 C 78.336 40.220,78.269 40.400,78.051 40.400 C 77.297 40.400,74.834 42.203,74.817 42.767 C 74.808 43.078,74.691 43.224,74.557 43.091 C 74.282 42.815,73.685 43.244,71.758 45.104 C 71.015 45.820,70.271 46.450,70.104 46.504 C 69.937 46.557,69.845 46.735,69.900 46.900 C 69.955 47.065,69.865 47.179,69.700 47.153 C 68.903 47.027,68.378 47.240,68.600 47.600 C 68.736 47.820,68.623 48.000,68.350 48.000 C 68.077 48.000,66.635 49.260,65.146 50.800 C 63.657 52.340,62.239 53.600,61.996 53.600 C 61.752 53.600,61.664 53.780,61.800 54.000 C 61.936 54.220,61.756 54.400,61.400 54.400 C 61.044 54.400,60.864 54.580,61.000 54.800 C 61.136 55.020,60.956 55.200,60.600 55.200 C 60.244 55.200,60.064 55.380,60.200 55.600 C 60.336 55.820,60.156 56.000,59.800 56.000 C 59.444 56.000,59.264 56.180,59.400 56.400 C 59.536 56.620,59.448 56.800,59.205 56.800 C 58.632 56.800,56.800 58.632,56.800 59.205 C 56.800 59.448,56.620 59.536,56.400 59.400 C 56.180 59.264,56.000 59.444,56.000 59.800 C 56.000 60.156,55.820 60.336,55.600 60.200 C 55.380 60.064,55.200 60.244,55.200 60.600 C 55.200 60.956,55.020 61.136,54.800 61.000 C 54.580 60.864,54.400 61.044,54.400 61.400 C 54.400 61.756,54.220 61.936,54.000 61.800 C 53.780 61.664,53.600 61.756,53.600 62.005 C 53.600 62.615,52.558 63.624,52.248 63.314 C 52.111 63.178,52.000 63.251,52.000 63.477 C 52.000 63.703,50.645 65.288,48.988 66.999 C 47.332 68.710,46.051 70.184,46.142 70.275 C 46.233 70.366,45.520 71.262,44.558 72.265 C 43.596 73.269,42.908 74.250,43.028 74.445 C 43.149 74.640,43.012 74.805,42.724 74.811 C 42.436 74.817,41.759 75.537,41.220 76.411 C 40.680 77.285,40.095 78.000,39.920 78.000 C 39.744 78.000,39.600 78.281,39.600 78.624 C 39.600 78.967,39.420 79.136,39.200 79.000 C 38.980 78.864,38.800 78.956,38.800 79.205 C 38.800 79.454,38.528 79.929,38.196 80.261 C 37.864 80.593,37.712 81.058,37.858 81.294 C 38.004 81.530,37.943 81.612,37.722 81.475 C 37.501 81.339,37.083 81.671,36.793 82.214 C 36.502 82.756,36.115 83.200,35.932 83.200 C 35.750 83.200,35.600 83.472,35.600 83.804 C 35.600 84.136,35.060 84.972,34.400 85.663 C 33.740 86.354,33.200 87.079,33.200 87.276 C 33.200 87.473,32.840 88.020,32.400 88.492 C 31.960 88.964,31.600 89.587,31.600 89.875 C 31.600 90.164,31.420 90.400,31.200 90.400 C 30.980 90.400,30.800 90.655,30.800 90.967 C 30.800 91.278,30.575 91.624,30.300 91.735 C 30.025 91.846,30.177 91.951,30.638 91.968 C 31.681 92.008,32.251 92.670,34.277 96.200 C 36.125 99.418,44.873 114.469,47.995 119.800 C 49.154 121.780,50.416 123.940,50.800 124.600 C 51.184 125.260,52.447 127.420,53.608 129.400 C 54.768 131.380,56.291 133.990,56.992 135.200 C 58.924 138.537,65.464 149.764,67.711 153.600 C 68.807 155.470,70.016 157.540,70.399 158.200 C 70.782 158.860,73.036 162.730,75.408 166.800 C 77.779 170.870,80.924 176.270,82.396 178.800 C 83.867 181.330,87.913 188.260,91.387 194.200 C 94.860 200.140,98.039 205.585,98.451 206.300 C 98.863 207.015,99.537 208.185,99.949 208.900 C 100.360 209.615,101.594 211.730,102.690 213.600 C 105.415 218.249,113.212 231.615,113.774 232.600 C 117.413 238.982,117.693 239.304,115.972 235.133 C 97.593 190.562,116.853 139.346,159.922 118.262 C 169.360 113.642,176.134 111.620,189.000 109.582 C 190.997 109.266,218.339 109.152,284.343 109.184 C 356.602 109.219,377.129 109.121,377.994 108.739 L 379.101 108.248 378.351 106.912 C 377.938 106.177,377.600 105.311,377.600 104.988 C 377.600 104.665,377.420 104.400,377.200 104.400 C 376.980 104.400,376.800 104.158,376.800 103.862 C 376.800 103.566,376.440 102.998,376.000 102.600 C 375.560 102.202,375.200 101.631,375.200 101.333 C 375.200 100.687,374.365 99.122,373.800 98.706 C 373.580 98.544,373.556 98.409,373.747 98.406 C 373.939 98.403,373.614 97.770,373.027 97.000 C 372.440 96.230,372.071 95.600,372.207 95.600 C 372.436 95.600,371.168 93.637,370.213 92.514 C 368.939 91.015,368.793 90.800,369.045 90.800 C 369.198 90.800,368.938 90.467,368.468 90.059 C 367.999 89.652,367.731 89.202,367.874 89.059 C 368.017 88.917,367.893 88.800,367.600 88.800 C 367.307 88.800,367.183 88.683,367.326 88.541 C 367.469 88.398,367.274 87.993,366.893 87.641 C 366.512 87.288,366.151 86.763,366.091 86.474 C 366.032 86.185,365.627 85.566,365.191 85.099 C 364.756 84.631,364.400 84.013,364.400 83.725 C 364.400 83.436,364.250 83.200,364.068 83.200 C 363.885 83.200,363.498 82.756,363.207 82.214 C 362.917 81.671,362.527 81.322,362.340 81.437 C 362.042 81.621,361.974 81.447,362.008 80.592 C 362.013 80.478,361.653 79.994,361.208 79.517 C 360.764 79.040,360.400 78.492,360.400 78.301 C 360.400 78.109,360.247 78.047,360.060 78.163 C 359.873 78.278,359.471 77.884,359.166 77.286 C 358.861 76.689,358.194 75.795,357.685 75.300 C 357.176 74.805,356.844 74.400,356.949 74.400 C 357.187 74.400,355.813 72.711,354.100 70.897 C 353.385 70.140,352.800 69.370,352.800 69.187 C 352.800 69.003,351.900 67.929,350.800 66.800 C 349.700 65.671,348.800 64.568,348.800 64.350 C 348.800 64.131,348.620 64.064,348.400 64.200 C 348.180 64.336,348.000 64.156,348.000 63.800 C 348.000 63.444,347.820 63.264,347.600 63.400 C 347.380 63.536,347.200 63.356,347.200 63.000 C 347.200 62.644,347.020 62.464,346.800 62.600 C 346.580 62.736,346.400 62.556,346.400 62.200 C 346.400 61.844,346.220 61.664,346.000 61.800 C 345.780 61.936,345.600 61.756,345.600 61.400 C 345.600 61.044,345.420 60.864,345.200 61.000 C 344.980 61.136,344.800 61.053,344.800 60.816 C 344.800 60.254,339.746 55.200,339.184 55.200 C 338.947 55.200,338.864 55.020,339.000 54.800 C 339.136 54.580,338.956 54.400,338.600 54.400 C 338.244 54.400,338.064 54.220,338.200 54.000 C 338.336 53.780,338.156 53.600,337.800 53.600 C 337.444 53.600,337.264 53.420,337.400 53.200 C 337.536 52.980,337.356 52.800,337.000 52.800 C 336.644 52.800,336.464 52.620,336.600 52.400 C 336.736 52.180,336.556 52.000,336.200 52.000 C 335.844 52.000,335.664 51.820,335.800 51.600 C 335.936 51.380,335.756 51.200,335.400 51.200 C 335.044 51.200,334.864 51.020,335.000 50.800 C 335.136 50.580,335.082 50.400,334.880 50.400 C 334.678 50.400,333.544 49.500,332.360 48.400 C 331.176 47.300,330.079 46.400,329.922 46.400 C 329.765 46.400,329.201 45.995,328.670 45.500 C 326.771 43.732,325.635 42.898,325.419 43.114 C 325.299 43.235,325.200 43.033,325.200 42.667 C 325.200 42.300,325.062 42.045,324.892 42.100 C 324.723 42.155,324.149 41.795,323.617 41.300 C 323.085 40.805,322.402 40.400,322.101 40.400 C 321.799 40.400,321.664 40.220,321.800 40.000 C 321.936 39.780,321.902 39.600,321.724 39.600 C 321.546 39.599,320.877 39.149,320.238 38.600 C 319.599 38.050,318.932 37.600,318.756 37.600 C 318.580 37.600,317.986 37.150,317.436 36.600 C 316.886 36.050,316.282 35.600,316.094 35.600 C 315.905 35.600,315.369 35.244,314.901 34.809 C 314.434 34.373,313.815 33.968,313.526 33.909 C 313.237 33.849,312.712 33.488,312.359 33.107 C 312.007 32.726,311.602 32.531,311.459 32.674 C 311.317 32.817,311.200 32.693,311.200 32.400 C 311.200 32.107,311.083 31.983,310.941 32.126 C 310.798 32.269,310.348 32.001,309.941 31.532 C 309.533 31.062,309.200 30.808,309.200 30.967 C 309.200 31.127,308.936 31.019,308.614 30.729 C 307.256 29.504,306.873 29.260,306.652 29.481 C 306.524 29.610,306.305 29.419,306.167 29.057 C 306.028 28.696,305.750 28.400,305.549 28.400 C 305.348 28.400,304.423 27.919,303.492 27.332 C 302.561 26.744,301.730 26.310,301.645 26.366 C 301.559 26.422,301.379 26.318,301.245 26.134 C 300.856 25.603,299.268 24.800,298.605 24.800 C 298.272 24.800,298.000 24.641,298.000 24.447 C 298.000 24.252,297.685 23.993,297.300 23.871 C 296.364 23.575,294.234 22.276,294.067 21.900 C 293.993 21.735,293.588 21.600,293.167 21.600 C 292.745 21.600,292.400 21.420,292.400 21.200 C 292.400 20.980,292.040 20.800,291.600 20.800 C 291.160 20.800,290.800 20.620,290.800 20.400 C 290.800 20.180,290.455 20.000,290.033 20.000 C 289.612 20.000,289.207 19.865,289.133 19.700 C 288.908 19.194,285.573 17.600,284.739 17.600 C 284.306 17.600,284.064 17.420,284.200 17.200 C 284.340 16.973,284.004 16.800,283.424 16.800 C 282.861 16.800,282.400 16.609,282.400 16.376 C 282.400 16.143,282.235 16.055,282.032 16.180 C 281.830 16.305,281.393 16.136,281.061 15.804 C 280.729 15.472,280.262 15.200,280.023 15.200 C 279.784 15.200,279.277 15.041,278.895 14.847 C 278.245 14.516,277.447 14.179,275.000 13.200 C 274.450 12.980,273.595 12.632,273.100 12.426 C 271.609 11.807,264.122 9.149,263.541 9.033 C 261.306 8.587,259.613 8.022,257.905 7.153 C 257.523 6.959,256.568 6.800,255.782 6.800 C 254.996 6.800,254.440 6.658,254.548 6.485 C 254.655 6.312,254.268 6.130,253.689 6.083 C 253.109 6.035,252.456 5.816,252.238 5.598 C 252.019 5.379,251.257 5.200,250.544 5.200 C 249.831 5.200,249.136 5.020,249.000 4.800 C 248.864 4.580,248.054 4.400,247.200 4.400 C 246.346 4.400,245.536 4.220,245.400 4.000 C 245.264 3.780,244.454 3.600,243.600 3.600 C 242.746 3.600,241.936 3.420,241.800 3.200 C 241.664 2.980,240.768 2.800,239.810 2.800 C 238.851 2.800,238.007 2.629,237.933 2.421 C 237.860 2.212,236.962 1.987,235.938 1.921 C 234.915 1.854,234.149 1.682,234.238 1.538 C 234.327 1.395,233.455 1.249,232.300 1.216 C 229.343 1.131,229.200 1.108,229.200 0.721 C 229.200 0.531,228.615 0.372,227.900 0.369 C 227.185 0.366,216.340 0.265,203.800 0.145 C 191.260 0.026,180.899 0.030,180.775 0.155 " stroke="none" fill="#dc4434" fill-rule="evenodd"></path></g></svg>